<svg width="200" height="60" viewBox="0 0 200 60" fill="none" xmlns="http://www.w3.org/2000/svg">
  <!-- Building Icon -->
  <g transform="translate(10, 10)">
    <rect x="0" y="10" width="8" height="30" fill="#1a1a1a"/>
    <rect x="10" y="5" width="8" height="35" fill="#2a2a2a"/>
    <rect x="20" y="0" width="8" height="40" fill="#1a1a1a"/>
    <!-- Windows -->
    <rect x="2" y="15" width="2" height="3" fill="#f59e0b"/>
    <rect x="2" y="22" width="2" height="3" fill="#f59e0b"/>
    <rect x="2" y="29" width="2" height="3" fill="#f59e0b"/>
    <rect x="12" y="10" width="2" height="3" fill="#f59e0b"/>
    <rect x="12" y="17" width="2" height="3" fill="#f59e0b"/>
    <rect x="12" y="24" width="2" height="3" fill="#f59e0b"/>
    <rect x="12" y="31" width="2" height="3" fill="#f59e0b"/>
    <rect x="22" y="5" width="2" height="3" fill="#f59e0b"/>
    <rect x="22" y="12" width="2" height="3" fill="#f59e0b"/>
    <rect x="22" y="19" width="2" height="3" fill="#f59e0b"/>
    <rect x="22" y="26" width="2" height="3" fill="#f59e0b"/>
    <rect x="22" y="33" width="2" height="3" fill="#f59e0b"/>
  </g>
  
  <!-- Text -->
  <text x="55" y="28" font-family="Arial, sans-serif" font-size="18" font-weight="bold" fill="#1a1a1a">AMS</text>
  <text x="55" y="45" font-family="Arial, sans-serif" font-size="16" font-weight="600" fill="#f59e0b">BOUWERS</text>
</svg>

